<svg width="40" height="26" viewBox="0 0 40 26" fill="none" xmlns="http://www.w3.org/2000/svg">
<g clip-path="url(#clip0_9205_4719)">
<path d="M17.7297 19.3835C18.4666 19.3835 19.1499 19.3763 19.8331 19.3949C19.8998 19.3971 19.9976 19.548 20.0223 19.6438C20.9932 23.4737 24.6979 26.7807 30.0069 25.8367C33.5638 25.2037 35.7759 22.9552 36.7997 19.5616C36.8838 19.2819 36.9968 19.249 37.2497 19.2598C37.9366 19.2891 38.6249 19.2977 39.3126 19.2941C39.7625 19.2912 40.04 19.0473 39.9937 18.6869C39.7864 17.077 39.0749 15.7432 37.5337 15.0673C36.9026 14.7905 36.6063 14.4293 36.3244 13.85C35.0398 11.2103 33.0356 9.42085 30.017 8.91878C29.8431 8.88946 29.6917 8.86872 29.6381 8.62699C29.4736 7.88462 29.2671 7.15083 29.0801 6.41275C29.0613 6.33765 29.0678 6.25684 29.0599 6.14455C29.2533 6.14455 29.4207 6.15313 29.5866 6.14312C30.9133 6.0623 31.9777 4.7063 31.5951 3.51836C31.4459 3.05492 31.1944 2.58861 30.8749 2.21886C29.9395 1.13534 28.0868 1.33273 27.3854 2.56072C27.268 2.7667 27.1187 2.80102 26.9129 2.80102C25.9833 2.79888 25.0537 2.79959 24.1241 2.80818C23.6227 2.81318 23.3314 3.07494 23.3336 3.49333C23.3365 4.00183 23.6161 4.28147 24.1436 4.28433C24.9044 4.28791 25.6652 4.28934 26.4253 4.27289C26.6601 4.26789 26.7811 4.35013 26.8427 4.56684C27.0557 5.30992 27.2984 6.04585 27.4875 6.79466C27.6498 7.43547 27.7542 8.09059 27.8926 8.78075C25.721 8.92594 23.8161 9.57319 22.2626 11.0343C20.7251 12.4804 19.8817 14.2877 19.5346 16.3439C18.8571 16.0206 18.6101 15.5644 18.7535 14.9164C18.8332 14.5566 18.9354 14.2019 19.0383 13.8479C19.3354 12.8202 19.6513 11.7974 19.9273 10.764C19.9889 10.533 20.0578 10.3949 20.2903 10.3027C21.0012 10.0216 21.4917 9.51597 21.7199 8.78862C22.1228 7.50985 21.3475 6.3162 20.0867 6.31048C17.2131 6.29617 14.3394 6.30189 11.4658 6.30905C10.697 6.31119 10.1094 6.76319 9.87751 7.48697C9.48407 8.71352 10.3441 10.2119 11.6114 10.5079C11.7339 10.5365 11.8541 10.5745 12.0737 10.6345C11.8752 10.7568 11.7607 10.8319 11.6418 10.8992C9.69999 12.0063 8.34576 13.6276 7.45092 15.6316C7.0198 16.5964 6.80605 17.6248 6.75822 18.6797C6.73794 19.1339 6.93937 19.3327 7.40237 19.357C7.63133 19.3692 7.86102 19.3549 8.09071 19.3542C8.53995 19.3534 8.98991 19.3542 9.48117 19.3542C8.75225 21.5798 9.08193 23.4629 11.0433 24.8104C12.6106 25.8874 14.2909 25.9125 15.906 24.9119C17.9956 23.6196 18.4651 21.7286 17.7297 19.3835Z" fill="white"/>
<path d="M14.8552 5.19261C17.3246 5.71398 20.1548 3.19507 19.6091 0.998716C18.4317 0.829931 17.3057 0.95652 16.408 1.80259C15.4385 2.71661 14.9972 3.8931 14.8552 5.19261Z" fill="white"/>
<path d="M11.525 0.0382103C11.525 0.510953 11.4453 1.00801 11.5402 1.47074C11.8228 2.84892 12.8683 3.6249 14.0008 4.30577C14.2363 4.44737 14.3754 4.34868 14.4551 4.10337C14.6616 3.46684 14.7058 2.82532 14.5769 2.16662C14.3088 0.800606 12.8886 -0.211392 11.525 0.0382103Z" fill="white"/>
<path d="M7.70366 11.6686C7.70366 11.6679 7.70366 11.6679 7.70366 11.6672C8.16087 11.6672 8.61807 11.6736 9.07528 11.6658C9.539 11.6572 9.79188 11.4126 9.78029 11.0006C9.76942 10.6051 9.52379 10.382 9.06441 10.3784C8.15 10.372 7.23559 10.3727 6.32045 10.3777C5.86904 10.3806 5.62269 10.6073 5.61472 11.0071C5.60602 11.4162 5.86324 11.6586 6.33132 11.6665C6.78852 11.6744 7.24645 11.6686 7.70366 11.6686Z" fill="white"/>
<path d="M5.67053 14.44C5.67053 14.4415 5.67053 14.4429 5.67053 14.4443C6.11614 14.4443 6.56248 14.45 7.00809 14.4429C7.39936 14.4365 7.62687 14.214 7.63122 13.855C7.63557 13.4745 7.43776 13.2385 7.04577 13.2321C6.14222 13.2178 5.23796 13.2178 4.33442 13.2328C3.91779 13.2392 3.68013 13.4924 3.69607 13.8479C3.71273 14.209 3.96488 14.435 4.36847 14.4393C4.80249 14.4436 5.23651 14.44 5.67053 14.44Z" fill="white"/>
<path d="M17.7295 19.3834C18.4649 21.7286 17.9947 23.6195 15.9072 24.9126C14.2921 25.9132 12.6111 25.8881 11.0446 24.811C9.08315 23.4629 8.75347 21.5805 9.48239 19.3548C8.9904 19.3548 8.54117 19.3541 8.09193 19.3548C7.86224 19.3556 7.63255 19.3699 7.40359 19.3577C6.94131 19.3334 6.73915 19.1338 6.75944 18.6804C6.80654 17.6255 7.02029 16.5971 7.45213 15.6323C8.3477 13.629 9.70121 12.007 11.6431 10.8998C11.7619 10.8319 11.8764 10.7575 12.0749 10.6352C11.8554 10.5744 11.7351 10.5372 11.6126 10.5086C10.3454 10.2125 9.48528 8.7142 9.87873 7.48765C10.1113 6.76387 10.6989 6.31116 11.467 6.30973C14.3406 6.30329 17.2143 6.29757 20.088 6.31116C21.3487 6.31759 22.1233 7.51125 21.7211 8.7893C21.4922 9.51594 21.0024 10.0216 20.2916 10.3034C20.059 10.3956 19.9901 10.5337 19.9286 10.7647C19.6525 11.7981 19.3366 12.8208 19.0395 13.8486C18.9373 14.2026 18.8344 14.5573 18.7547 14.9171C18.6113 15.565 18.8584 16.0206 19.5358 16.3446C19.8822 14.2884 20.7256 12.4811 22.2639 11.035C23.8173 9.57387 25.7222 8.92662 27.8938 8.78143C27.7554 8.09199 27.6511 7.43615 27.4887 6.79534C27.2996 6.04654 27.0569 5.3106 26.8439 4.56752C26.7816 4.35153 26.6613 4.26857 26.4265 4.27357C25.6664 4.29002 24.9049 4.28859 24.1448 4.28502C23.6174 4.28215 23.3377 4.00251 23.3348 3.49401C23.3319 3.07491 23.6232 2.81315 24.1253 2.80886C25.0549 2.80028 25.9845 2.79956 26.9142 2.80171C27.1192 2.80242 27.2685 2.76809 27.3866 2.5614C28.0872 1.33342 29.9407 1.13674 30.8761 2.21954C31.1949 2.58858 31.4464 3.05488 31.5964 3.51904C31.9797 4.70698 30.9145 6.06298 29.5878 6.1438C29.4219 6.15381 29.2553 6.14523 29.0611 6.14523C29.069 6.25752 29.0625 6.33905 29.0814 6.41343C29.2683 7.15151 29.4748 7.88458 29.6393 8.62767C29.6929 8.8694 29.8436 8.89014 30.0182 8.91946C33.0368 9.42153 35.041 11.2102 36.3256 13.8507C36.6075 14.43 36.9031 14.7912 37.535 15.068C39.0754 15.7438 39.7877 17.0777 39.9949 18.6876C40.0413 19.048 39.7645 19.2919 39.3138 19.2948C38.6262 19.2991 37.9378 19.2898 37.2509 19.2604C36.998 19.2497 36.885 19.2833 36.801 19.5622C35.7771 22.9558 33.5657 25.2044 30.0081 25.8373C24.6999 26.7814 20.9944 23.4744 20.0235 19.6445C19.9988 19.5479 19.9017 19.397 19.8344 19.3956C19.1504 19.3763 18.4671 19.3834 17.7295 19.3834ZM21.3871 17.3137C21.4009 21.3989 24.505 24.2718 28.4039 24.2875C32.3202 24.3033 35.4062 21.2079 35.3678 17.2886C35.3308 13.5067 32.4303 10.3599 28.3097 10.4156C24.026 10.4743 21.3618 13.8042 21.3871 17.3137ZM18.8721 17.8358C18.8808 17.7979 18.8895 17.76 18.8975 17.7221C18.7547 17.6219 18.6156 17.5168 18.4693 17.4231C17.5621 16.8452 17.1418 16.0321 17.2636 14.9678C17.2984 14.6625 17.3578 14.3528 17.4549 14.0617C17.7179 13.2707 18.0121 12.4904 18.2845 11.7023C18.4765 11.1473 18.4309 11.0593 17.8519 11.06C17.0933 11.0615 16.3318 11.0858 15.576 11.1494C12.0046 11.4505 9.20343 13.8743 8.40784 17.3316C8.29191 17.8365 8.31582 17.8701 8.82592 17.8708C12.0372 17.8765 15.2485 17.8823 18.4591 17.8844C18.5968 17.8858 18.7345 17.8529 18.8721 17.8358ZM10.6721 21.2122C10.7308 21.5133 10.7605 21.8244 10.854 22.1148C11.2163 23.2405 12.3365 24.2096 13.8769 24.0501C15.0174 23.9321 15.7963 23.3242 16.2434 22.3064C16.6665 21.3424 16.5361 20.4198 15.8992 19.5816C15.8144 19.4693 15.6246 19.3763 15.4826 19.3749C14.2153 19.3584 12.948 19.3584 11.6807 19.3734C11.5387 19.3749 11.3532 19.4693 11.2656 19.5801C10.8902 20.0522 10.6845 20.5914 10.6721 21.2122ZM15.8354 7.61996C15.8354 7.6221 15.8354 7.62497 15.8354 7.62711C15.4137 7.62711 14.992 7.6264 14.5703 7.62711C13.6067 7.62854 12.643 7.62282 11.6793 7.63641C11.3025 7.64141 11.196 7.77587 11.1967 8.14849C11.1982 8.85438 11.5373 9.22342 12.2503 9.22414C14.5653 9.22557 16.8803 9.22628 19.1938 9.18337C19.5344 9.17693 19.9046 8.98526 20.1995 8.78858C20.4727 8.60621 20.6017 8.27222 20.48 7.92964C20.3553 7.58062 20.0228 7.62497 19.7402 7.62354C18.4388 7.61638 17.1368 7.61996 15.8354 7.61996ZM30.4044 3.92241C30.4044 3.2437 29.903 2.71803 29.248 2.71088C28.6727 2.70444 28.1619 3.21938 28.151 3.81513C28.1401 4.42233 28.6285 4.9387 29.2169 4.94228C29.8161 4.94514 30.4044 4.44021 30.4044 3.92241ZM37.0589 16.3889C37.0589 16.8831 37.0589 17.3716 37.0589 17.8758C37.4755 17.8758 37.8668 17.8758 38.2574 17.8758C38.2653 17.3323 37.619 16.5313 37.0589 16.3889Z" fill="#485E2D"/>
<path d="M14.8552 5.19251C14.9972 3.89301 15.4385 2.71652 16.408 1.8025C17.3057 0.955712 18.4324 0.829123 19.6091 0.998623C20.1548 3.19427 17.3238 5.71389 14.8552 5.19251Z" fill="#485E2D"/>
<path d="M11.525 0.0381445C12.8894 -0.212173 14.3088 0.80054 14.5769 2.16584C14.7059 2.82454 14.6617 3.46606 14.4552 4.10258C14.3755 4.34861 14.2371 4.44659 14.0009 4.30498C12.8684 3.62412 11.8228 2.84885 11.5403 1.46996C11.4446 1.00795 11.525 0.510887 11.525 0.0381445Z" fill="#485E2D"/>
<path d="M7.70367 11.6687C7.24646 11.6687 6.78926 11.6744 6.33205 11.6672C5.86325 11.6594 5.60675 11.4162 5.61545 11.0078C5.62414 10.608 5.86977 10.3806 6.32118 10.3784C7.23559 10.3734 8.15 10.3727 9.06514 10.3792C9.52452 10.3827 9.76942 10.6052 9.78102 11.0014C9.79261 11.4133 9.54046 11.6586 9.07601 11.6665C8.6188 11.6744 8.1616 11.6679 7.70439 11.6679C7.70367 11.6679 7.70367 11.6679 7.70367 11.6687Z" fill="#485E2D"/>
<path d="M5.67054 14.44C5.23652 14.44 4.8025 14.4436 4.3692 14.4393C3.96562 14.435 3.71347 14.209 3.6968 13.8478C3.68086 13.4924 3.9178 13.2392 4.33515 13.2328C5.23869 13.2185 6.14296 13.2178 7.0465 13.2321C7.43777 13.2385 7.6363 13.4738 7.63196 13.855C7.62761 14.214 7.40009 14.4364 7.00882 14.4429C6.56321 14.4507 6.11687 14.4443 5.67126 14.4443C5.67054 14.4429 5.67054 14.4414 5.67054 14.44Z" fill="#485E2D"/>
<path d="M21.3871 17.3136C21.3618 13.8041 24.026 10.4742 28.3097 10.4155C32.4304 10.3597 35.3308 13.5066 35.3678 17.2885C35.4062 21.2078 32.3202 24.3031 28.4039 24.2874C24.505 24.2724 21.4009 21.3995 21.3871 17.3136ZM28.8358 14.1031C28.8386 14.1031 28.8415 14.1031 28.8437 14.1031C28.8437 13.508 28.8539 12.913 28.8401 12.3179C28.83 11.8995 28.6379 11.7143 28.28 11.7315C27.9518 11.7472 27.7938 11.9546 27.7945 12.3508C27.7967 13.4329 27.7873 14.515 27.7996 15.5971C27.8025 15.8589 27.7214 16.0269 27.5098 16.1929C26.904 16.6692 26.7504 17.3522 27.07 17.9708C27.3939 18.598 28.0213 18.8448 28.7894 18.6846C28.9336 18.6545 29.143 18.7068 29.2589 18.799C29.7842 19.2167 30.2834 19.6658 30.7986 20.0971C31.0319 20.2923 31.5978 20.3088 31.734 20.1157C31.9485 19.8117 31.713 19.6058 31.5268 19.4048C31.4051 19.2732 31.266 19.158 31.1319 19.0379C30.7225 18.6689 30.3037 18.3091 29.9081 17.9265C29.8103 17.8321 29.7357 17.6647 29.7357 17.5303C29.7357 16.9638 29.5183 16.5254 29.0647 16.1757C28.9466 16.0841 28.8524 15.8939 28.8452 15.7444C28.8205 15.198 28.8358 14.6502 28.8358 14.1031ZM23.1326 17.0518C23.1326 17.0525 23.1326 17.0525 23.1326 17.0532C23.0486 17.0532 22.9645 17.0489 22.8812 17.0539C22.6544 17.0668 22.4805 17.1476 22.474 17.4058C22.4668 17.6819 22.6537 17.777 22.8885 17.7977C23.0544 17.812 23.2254 17.8063 23.3906 17.787C23.608 17.7613 23.7942 17.6754 23.7884 17.4173C23.7833 17.1648 23.6094 17.0747 23.3841 17.0539C23.3007 17.0454 23.2167 17.0518 23.1326 17.0518ZM28.7097 22.528C28.7097 22.4329 28.743 22.3271 28.7032 22.2713C28.6039 22.1325 28.4872 21.9459 28.3481 21.9165C28.2474 21.8958 28.0778 22.0803 27.9808 22.2055C27.9264 22.2763 27.9489 22.4107 27.9496 22.5166C27.9518 22.8034 27.9279 23.1538 28.3314 23.1553C28.7474 23.1574 28.6916 22.7941 28.7097 22.528ZM33.5542 17.0253C33.0716 17.0318 32.826 17.1576 32.8723 17.403C32.9455 17.7949 33.2745 17.7355 33.5585 17.7327C34.0121 17.7277 34.2454 17.5982 34.2034 17.3536C34.1389 16.9767 33.8302 17.0203 33.5542 17.0253ZM24.9731 14.2204C25.0281 14.141 25.1796 14.0137 25.2056 13.8642C25.2506 13.6103 24.8194 13.1654 24.5811 13.1733C24.3506 13.1805 24.2275 13.3092 24.2188 13.5352C24.2072 13.8277 24.5687 14.2189 24.9731 14.2204ZM31.779 14.2275C32.1927 14.2447 32.6369 13.7776 32.5289 13.5152C32.476 13.3864 32.2586 13.2634 32.105 13.2484C31.8623 13.2248 31.5036 13.6575 31.558 13.8971C31.5899 14.038 31.729 14.156 31.779 14.2275ZM24.4861 21.6769C24.8281 21.6233 25.2013 21.2857 25.2035 21.0333C25.2056 20.7987 25.0796 20.6549 24.8368 20.6371C24.5803 20.6185 24.1818 21.0011 24.2246 21.2664C24.2485 21.413 24.3948 21.5403 24.4861 21.6769Z" fill="#FEDAAA"/>
<path d="M18.8722 17.8356C18.7345 17.8528 18.5976 17.8857 18.4599 17.8857C15.2486 17.8835 12.0373 17.8778 8.8267 17.8721C8.3166 17.8713 8.29197 17.8377 8.40863 17.3328C9.20421 13.8763 12.0054 11.4518 15.5768 11.1507C16.3326 11.087 17.0941 11.0627 17.8527 11.0613C18.4316 11.0606 18.4773 11.1485 18.2853 11.7035C18.0128 12.4917 17.7187 13.2719 17.4556 14.0629C17.3586 14.3547 17.2991 14.6637 17.2644 14.9691C17.1419 16.0333 17.5629 16.8465 18.47 17.4244C18.6171 17.518 18.7555 17.6232 18.8983 17.7233C18.8889 17.7598 18.8802 17.7977 18.8722 17.8356Z" fill="#95B566"/>
<path d="M10.6721 21.2122C10.6844 20.5921 10.8902 20.0521 11.2641 19.5801C11.3518 19.4692 11.5373 19.3748 11.6793 19.3734C12.9466 19.3584 14.2138 19.3584 15.4811 19.3748C15.6239 19.377 15.813 19.4699 15.8977 19.5815C16.5346 20.4197 16.6651 21.3416 16.2419 22.3064C15.7949 23.3241 15.0159 23.932 13.8755 24.05C12.335 24.2095 11.2155 23.2404 10.8525 22.1147C10.7605 21.8236 10.7308 21.5133 10.6721 21.2122ZM13.5451 22.2849C14.0885 22.2749 14.55 21.8279 14.55 21.313C14.55 20.8195 14.0776 20.3875 13.5451 20.394C12.9922 20.4011 12.5422 20.841 12.5546 21.3616C12.5676 21.8887 13.0031 22.2957 13.5451 22.2849Z" fill="#FFEED5"/>
<path d="M15.8355 7.61989C17.1368 7.61989 18.4382 7.61631 19.7402 7.62275C20.0228 7.62418 20.3554 7.58055 20.48 7.92885C20.6025 8.27143 20.4735 8.60542 20.1996 8.7878C19.9047 8.98448 19.5352 9.17686 19.1939 9.18258C16.8796 9.22549 14.5646 9.22478 12.2503 9.22335C11.5381 9.22263 11.199 8.85431 11.1968 8.1477C11.1961 7.77508 11.3026 7.64063 11.6793 7.63562C12.643 7.62203 13.6067 7.62775 14.5704 7.62632C14.9921 7.62561 15.4138 7.62632 15.8355 7.62632C15.8355 7.62489 15.8355 7.62275 15.8355 7.61989Z" fill="#95B566"/>
<path d="M30.4045 3.92227C30.4045 4.44007 29.8161 4.945 29.2176 4.94142C28.6293 4.93785 28.1409 4.42148 28.1518 3.81428C28.1627 3.21852 28.6735 2.70358 29.2488 2.71002C29.9024 2.71789 30.4045 3.24355 30.4045 3.92227Z" fill="#FFEED5"/>
<path d="M37.0591 16.3889C37.6185 16.5305 38.2655 17.3323 38.2575 17.8758C37.867 17.8758 37.4757 17.8758 37.0591 17.8758C37.0591 17.3716 37.0591 16.8838 37.0591 16.3889Z" fill="#95B566"/>
<path d="M28.8359 14.1031C28.8359 14.6503 28.82 15.1988 28.8461 15.7445C28.8533 15.894 28.9475 16.0849 29.0656 16.1758C29.5185 16.5255 29.7366 16.9639 29.7366 17.5303C29.7366 17.6641 29.8112 17.8322 29.909 17.9266C30.3046 18.3092 30.7234 18.6689 31.1328 19.038C31.2661 19.1581 31.406 19.2733 31.5277 19.4049C31.7139 19.6058 31.9494 19.8111 31.7349 20.1158C31.5987 20.3096 31.0321 20.2924 30.7995 20.0972C30.2851 19.6659 29.7851 19.2168 29.2598 18.7991C29.1439 18.7068 28.9352 18.6546 28.7903 18.6847C28.0222 18.8456 27.3948 18.5988 27.0709 17.9709C26.7513 17.3515 26.9049 16.6685 27.5107 16.1929C27.7223 16.027 27.8034 15.8589 27.8005 15.5972C27.7882 14.5151 27.7976 13.433 27.7954 12.3509C27.7947 11.9547 27.9527 11.7473 28.2809 11.7316C28.6381 11.7144 28.8309 11.8996 28.841 12.318C28.8548 12.9123 28.8446 13.5081 28.8446 14.1031C28.8417 14.1031 28.8388 14.1031 28.8359 14.1031Z" fill="#485E2D"/>
<path d="M23.1327 17.0518C23.2168 17.0518 23.3008 17.0454 23.3841 17.0532C23.6095 17.074 23.7834 17.1648 23.7885 17.4165C23.7935 17.6747 23.608 17.7613 23.3907 17.7863C23.2247 17.8056 23.0545 17.8113 22.8885 17.797C22.6538 17.777 22.4668 17.6812 22.4741 17.4051C22.4806 17.1469 22.6545 17.0661 22.8813 17.0532C22.9646 17.0482 23.0487 17.0525 23.1327 17.0525C23.1327 17.0525 23.1327 17.0525 23.1327 17.0518Z" fill="#485E2D"/>
<path d="M28.7099 22.5281C28.6918 22.7942 28.7476 23.1575 28.3324 23.1554C27.9288 23.1539 27.9527 22.8035 27.9505 22.5167C27.9498 22.4108 27.9266 22.2764 27.9817 22.2056C28.0788 22.0804 28.2483 21.8959 28.349 21.9166C28.4882 21.946 28.6048 22.1326 28.7041 22.2714C28.7425 22.3272 28.7099 22.433 28.7099 22.5281Z" fill="#485E2D"/>
<path d="M33.5543 17.0255C33.8311 17.0205 34.139 16.9769 34.2035 17.3538C34.2456 17.5984 34.0122 17.7285 33.5587 17.7328C33.2746 17.7357 32.9457 17.7951 32.8725 17.4031C32.8261 17.1578 33.0718 17.0319 33.5543 17.0255Z" fill="#485E2D"/>
<path d="M24.9731 14.2205C24.568 14.219 24.2072 13.8278 24.2188 13.5353C24.2282 13.3093 24.3506 13.1806 24.5811 13.1734C24.8194 13.1663 25.2506 13.6111 25.2056 13.8643C25.1796 14.0138 25.0281 14.1418 24.9731 14.2205Z" fill="#485E2D"/>
<path d="M31.779 14.2276C31.729 14.156 31.5899 14.038 31.558 13.8964C31.5037 13.6576 31.8623 13.2242 32.1051 13.2478C32.2587 13.2628 32.476 13.3858 32.5289 13.5145C32.6369 13.7777 32.1935 14.2447 31.779 14.2276Z" fill="#485E2D"/>
<path d="M24.4862 21.6771C24.3949 21.5412 24.2485 21.4132 24.2253 21.2665C24.1826 21.0012 24.5804 20.6179 24.8376 20.6372C25.0803 20.6551 25.2071 20.7988 25.2042 21.0334C25.2013 21.2859 24.8282 21.6227 24.4862 21.6771Z" fill="#485E2D"/>
<path d="M13.5452 22.2848C13.0032 22.2949 12.567 21.8886 12.5547 21.3615C12.5424 20.8409 12.9923 20.401 13.5452 20.3939C14.0777 20.3874 14.5509 20.8194 14.5502 21.3129C14.5502 21.8285 14.0886 22.2748 13.5452 22.2848Z" fill="#485E2D"/>
<path d="M2.87152 17.9449C2.24032 17.9449 1.60912 17.9485 0.978981 17.9442C0.392041 17.94 0.0253356 17.7157 0.00109934 17.3573C-0.0220832 17.0045 0.322494 16.7532 0.929455 16.7468C2.24348 16.7327 3.55856 16.7319 4.87259 16.7461C5.44162 16.7525 5.73035 16.986 5.72402 17.3644C5.7177 17.7207 5.38682 17.9414 4.8178 17.9478C4.16974 17.9556 3.52063 17.9492 2.87257 17.9492C2.87152 17.9478 2.87152 17.9464 2.87152 17.9449Z" fill="#485E2D"/>
</g>
<defs>
<clipPath id="clip0_9205_4719">
<rect width="40" height="26" fill="white"/>
</clipPath>
</defs>
</svg>
